<svg width="30" height="30" viewBox="0 0 30 30" fill="none" xmlns="http://www.w3.org/2000/svg">
<path d="M22.0178 0.407227H7.54292C3.54579 0.407227 0.305481 3.64754 0.305481 7.64467V22.1196C0.305481 26.1167 3.54579 29.357 7.54292 29.357H22.0178C26.0149 29.357 29.2553 26.1167 29.2553 22.1196V7.64467C29.2553 3.64754 26.0149 0.407227 22.0178 0.407227Z" fill="#9D9D9D"/>
<path d="M20.5703 13.97C20.749 15.1746 20.5432 16.405 19.9823 17.4859C19.4214 18.5669 18.5339 19.4435 17.4461 19.991C16.3583 20.5386 15.1255 20.7292 13.9232 20.5357C12.7208 20.3422 11.61 19.7745 10.7489 18.9134C9.88776 18.0522 9.32007 16.9415 9.12659 15.7391C8.93312 14.5367 9.1237 13.304 9.67123 12.2162C10.2188 11.1283 11.0954 10.2409 12.1763 9.67996C13.2573 9.11906 14.4876 8.91329 15.6923 9.09193C16.9211 9.27415 18.0587 9.84674 18.9371 10.7251C19.8155 11.6035 20.3881 12.7412 20.5703 13.97Z" stroke="white" stroke-linecap="round" stroke-linejoin="round"/>
<path d="M22.7416 5.9209H23.7416" stroke="white" stroke-linecap="round" stroke-linejoin="round"/>
</svg>
