<svg width="29" height="28" viewBox="0 0 29 28" fill="none" xmlns="http://www.w3.org/2000/svg">
<path d="M20.2648 8.72607C22.5682 8.72607 24.7773 9.64109 26.406 11.2698C28.0348 12.8986 28.9498 15.1076 28.9498 17.411V27.5434H23.1598V17.411C23.1598 16.6432 22.8548 15.9069 22.3119 15.3639C21.769 14.821 21.0326 14.516 20.2648 14.516C19.497 14.516 18.7607 14.821 18.2178 15.3639C17.6749 15.9069 17.3699 16.6432 17.3699 17.411V27.5434H11.5799V17.411C11.5799 15.1076 12.4949 12.8986 14.1237 11.2698C15.7524 9.64109 17.9615 8.72607 20.2648 8.72607Z" fill="#9D9D9D"/>
<path d="M5.78995 10.1738H0V27.5437H5.78995V10.1738Z" fill="#9D9D9D"/>
<path d="M2.89498 5.83146C4.49383 5.83146 5.78995 4.53533 5.78995 2.93648C5.78995 1.33763 4.49383 0.0415039 2.89498 0.0415039C1.29613 0.0415039 0 1.33763 0 2.93648C0 4.53533 1.29613 5.83146 2.89498 5.83146Z" fill="#9D9D9D"/>
</svg>
