<svg width="18" height="16" viewBox="0 0 18 16" fill="none" xmlns="http://www.w3.org/2000/svg">
<path d="M1.4 15.4253C1.06667 15.5586 0.75 15.5293 0.45 15.3373C0.15 15.146 0 14.867 0 14.5003V10.7753C0 10.542 0.0666667 10.3336 0.2 10.1503C0.333333 9.96697 0.516667 9.8503 0.75 9.8003L8 8.0003L0.75 6.2003C0.516667 6.1503 0.333333 6.03363 0.2 5.8503C0.0666667 5.66697 0 5.45863 0 5.2253V1.5003C0 1.13363 0.15 0.8543 0.45 0.6623C0.75 0.470966 1.06667 0.441966 1.4 0.575299L16.8 7.0753C17.2167 7.25863 17.425 7.56697 17.425 8.0003C17.425 8.43363 17.2167 8.74197 16.8 8.9253L1.4 15.4253Z" fill="#3E73C9"/>
</svg>
