<svg width="32" height="27" viewBox="0 0 32 27" fill="none" xmlns="http://www.w3.org/2000/svg">
<path d="M31.9217 0.325125C30.5408 1.30437 29.0119 2.05333 27.3939 2.54317C26.5255 1.53927 25.3713 0.827726 24.0875 0.504781C22.8037 0.181836 21.4523 0.263071 20.2159 0.737498C18.9795 1.21193 17.9179 2.05665 17.1747 3.15744C16.4314 4.25822 16.0423 5.56195 16.06 6.89229V8.342C13.526 8.40806 11.015 7.84303 8.75073 6.69723C6.48647 5.55143 4.5392 3.86043 3.08236 1.77483C3.08236 1.77483 -2.68551 14.8222 10.2922 20.621C7.32249 22.6476 3.78482 23.6638 0.198425 23.5204C13.1761 30.7689 29.0377 23.5204 29.0377 6.8488C29.0364 6.44499 28.9978 6.04218 28.9224 5.64554C30.394 4.18641 31.4326 2.34415 31.9217 0.325125Z" fill="#9D9D9D"/>
</svg>
