<svg width="33" height="23" viewBox="0 0 33 23" fill="none" xmlns="http://www.w3.org/2000/svg">
<path d="M32.1145 4.08251C31.9425 3.39555 31.5923 2.76613 31.0993 2.25782C30.6062 1.74951 29.9877 1.38032 29.3063 1.18754C26.8166 0.57959 16.8579 0.57959 16.8579 0.57959C16.8579 0.57959 6.8992 0.57959 4.40952 1.24543C3.72811 1.43822 3.10965 1.80741 2.61659 2.31572C2.12353 2.82402 1.77334 3.45345 1.6014 4.14041C1.14575 6.66708 0.922864 9.23023 0.93555 11.7976C0.919309 14.3844 1.1422 16.967 1.6014 19.5127C1.79096 20.1784 2.14899 20.7838 2.6409 21.2707C3.13281 21.7575 3.74197 22.1093 4.40952 22.2919C6.8992 22.9578 16.8579 22.9578 16.8579 22.9578C16.8579 22.9578 26.8166 22.9578 29.3063 22.2919C29.9877 22.0991 30.6062 21.7299 31.0993 21.2216C31.5923 20.7133 31.9425 20.0839 32.1145 19.3969C32.5666 16.8893 32.7895 14.3457 32.7803 11.7976C32.7965 9.2109 32.5736 6.62821 32.1145 4.08251Z" fill="#9D9D9D"/>
<path d="M13.6011 16.531L21.9241 11.7977L13.6011 7.06445V16.531Z" fill="#FAFAFA"/>
</svg>
